<?xml version="1.0" standalone="no"?>
<!DOCTYPE svg PUBLIC "-//W3C//DTD SVG 20010904//EN"
 "http://www.w3.org/TR/2001/REC-SVG-20010904/DTD/svg10.dtd">
<svg version="1.0" xmlns="http://www.w3.org/2000/svg"
 width="770.000000pt" height="446.000000pt" viewBox="0 0 770.000000 446.000000"
 preserveAspectRatio="xMidYMid meet">
<metadata>
Created by potrace 1.16, written by Peter Selinger 2001-2019
</metadata>
<g transform="translate(0.000000,446.000000) scale(0.100000,-0.100000)"
fill="#000000" stroke="none">
<path d="M2808 3020 c-260 -47 -495 -227 -603 -463 -66 -144 -80 -207 -80
-362 1 -113 5 -155 22 -216 83 -289 277 -500 548 -596 76 -27 88 -28 250 -28
165 1 173 2 259 33 323 115 543 406 563 747 23 393 -219 748 -592 865 -78 24
-283 36 -367 20z m262 -342 c62 -18 138 -68 186 -121 83 -92 124 -212 124
-365 0 -155 -43 -280 -129 -374 -61 -67 -118 -102 -197 -123 -174 -45 -353 22
-452 169 -59 86 -84 171 -89 291 -8 181 37 315 142 421 105 106 268 146 415
102z"/>
<path d="M4588 3020 c-83 -14 -161 -41 -240 -82 -358 -185 -526 -613 -396
-1008 73 -225 238 -413 448 -513 100 -47 196 -67 325 -67 277 0 522 115 651
305 40 58 42 76 11 91 -12 6 -79 45 -150 87 l-127 76 -34 -52 c-60 -95 -149
-148 -280 -169 -142 -22 -265 21 -362 125 -60 65 -93 123 -118 210 -73 252 27
532 224 630 107 53 271 52 384 -2 64 -30 138 -96 163 -146 9 -16 17 -31 18
-33 2 -2 261 175 285 195 11 10 -41 85 -105 149 -106 107 -226 170 -383 200
-78 15 -236 17 -314 4z"/>
<path d="M610 2190 l0 -831 483 3 c467 4 484 5 557 27 143 43 244 121 297 229
26 53 28 66 28 178 0 119 0 121 -38 196 -44 91 -103 148 -194 190 -35 15 -63
30 -63 33 0 2 14 12 31 21 52 26 119 95 146 149 114 224 34 500 -177 603 l-55
27 -507 3 -508 3 0 -831z m857 484 c45 -34 65 -77 65 -142 1 -72 -20 -122 -63
-153 -33 -23 -40 -24 -256 -27 l-223 -3 0 169 c0 93 3 172 7 176 4 4 105 6
224 4 203 -3 219 -4 246 -24z m32 -639 c72 -37 114 -140 92 -223 -15 -55 -63
-109 -109 -122 -23 -7 -123 -10 -262 -8 l-225 3 -3 170 c-1 93 0 175 2 182 8
20 466 19 505 -2z"/>
<path d="M5612 2193 l3 -828 188 -3 187 -2 0 240 0 241 58 62 c32 34 71 77 86
95 16 17 32 32 36 32 4 0 25 -28 48 -62 22 -35 115 -169 206 -298 90 -129 177
-252 191 -272 l26 -38 215 0 214 0 -17 28 c-10 15 -29 43 -44 62 -14 19 -115
159 -224 310 -109 151 -234 324 -278 385 -44 60 -82 117 -84 126 -3 12 71 108
219 286 122 147 230 277 239 288 9 11 44 52 78 92 33 40 61 74 61 77 0 4 -94
6 -208 6 l-208 0 -89 -106 c-49 -59 -94 -112 -100 -118 -5 -6 -44 -51 -85
-101 -41 -49 -80 -95 -85 -101 -6 -6 -62 -72 -125 -147 -63 -75 -117 -134
-122 -131 -4 3 -8 162 -8 355 l0 349 -190 0 -190 0 2 -827z"/>
</g>
</svg>
