<?xml version="1.0" standalone="no"?>
<!DOCTYPE svg PUBLIC "-//W3C//DTD SVG 20010904//EN"
 "http://www.w3.org/TR/2001/REC-SVG-20010904/DTD/svg10.dtd">
<svg version="1.0" xmlns="http://www.w3.org/2000/svg"
 width="2400.000000pt" height="1350.000000pt" viewBox="0 0 2400.000000 1350.000000"
 preserveAspectRatio="xMidYMid meet">
<metadata>
Created by potrace 1.16, written by Peter Selinger 2001-2019
</metadata>
<g transform="translate(0.000000,1350.000000) scale(0.100000,-0.100000)"
fill="#000000" stroke="none">
<path d="M2336 13475 c-9 -13 -16 -27 -16 -31 0 -4 -6 -15 -14 -23 -8 -9 -26
-41 -42 -71 -15 -30 -31 -57 -35 -60 -6 -5 -147 -290 -183 -369 -94 -213 -238
-682 -260 -851 -3 -25 -8 -56 -11 -70 -14 -66 -37 -249 -51 -410 -14 -165 -9
-530 10 -700 3 -25 8 -72 11 -105 7 -66 20 -152 36 -230 5 -27 15 -75 21 -105
9 -47 22 -101 77 -315 11 -43 80 -246 91 -270 5 -11 18 -45 28 -75 28 -80 58
-148 134 -300 70 -142 181 -343 198 -360 3 -3 14 -22 25 -43 11 -21 32 -52 47
-70 16 -17 28 -35 28 -39 0 -9 157 -222 191 -259 13 -14 33 -38 44 -52 174
-222 528 -550 789 -730 23 -16 50 -35 61 -42 50 -36 151 -102 165 -108 8 -4
44 -25 80 -46 64 -39 365 -192 428 -218 17 -7 47 -19 65 -27 91 -39 348 -132
390 -140 12 -3 49 -12 82 -21 33 -9 67 -18 75 -21 111 -29 427 -89 520 -98 97
-10 149 -15 210 -22 70 -8 498 -8 565 0 28 3 82 8 120 11 235 17 589 91 860
178 131 42 322 115 420 160 111 51 392 195 413 212 1 1 -39 28 -90 60 -264
166 -489 346 -714 570 -355 353 -583 670 -799 1110 -232 472 -364 956 -406
1490 -15 185 -6 633 15 794 65 486 190 911 389 1316 65 131 154 290 211 378
l18 27 -2090 0 -2090 0 -16 -25z"/>
<path d="M13470 13494 c0 -3 31 -58 69 -122 215 -367 362 -734 455 -1133 34
-147 85 -439 87 -504 1 -16 7 24 15 90 47 407 167 852 324 1200 61 136 195
393 232 448 l19 27 -600 0 c-331 0 -601 -2 -601 -6z"/>
<path d="M14076 10843 c-16 -202 -86 -536 -163 -783 -142 -458 -402 -948 -698
-1315 -312 -388 -663 -698 -1084 -958 l-74 -46 133 -65 c117 -57 173 -82 198
-86 4 -1 18 -8 32 -15 47 -25 148 -65 162 -65 8 0 18 -4 24 -8 5 -5 43 -19 84
-31 41 -13 84 -27 95 -31 23 -10 84 -29 111 -35 10 -2 46 -11 79 -20 82 -22
318 -71 385 -80 30 -4 62 -9 71 -10 14 -3 41 -6 159 -20 149 -17 576 -24 695
-11 28 3 77 8 110 11 55 5 171 19 255 31 29 5 168 31 259 50 136 28 438 122
576 179 60 25 113 45 116 45 8 0 346 164 369 179 8 6 39 23 68 39 l53 29 -99
61 c-302 186 -658 489 -896 762 -125 144 -156 183 -268 339 -346 483 -580
1038 -692 1636 -13 72 -27 162 -31 200 -11 102 -21 108 -29 18z"/>
<path d="M18645 5539 c-946 -98 -1700 -826 -1830 -1767 -24 -176 -20 -439 11
-632 4 -28 -2 -20 -30 37 -103 215 -264 392 -494 545 l-82 55 42 12 c133 39
241 136 307 274 52 109 71 200 71 341 0 263 -91 479 -276 657 -114 108 -238
181 -399 232 -178 58 -163 57 -1216 57 l-969 0 0 -1790 0 -1790 1144 0 c1240
0 1202 -2 1351 55 277 104 500 361 581 670 23 85 27 123 28 246 l1 146 36
-101 c225 -630 760 -1115 1419 -1285 322 -84 694 -85 1013 -5 450 113 846 372
1129 737 479 621 564 1466 217 2167 -318 644 -932 1069 -1643 1139 -124 12
-292 12 -411 0z m360 -724 c202 -36 378 -130 539 -290 188 -186 305 -403 372
-690 26 -112 28 -135 29 -335 0 -240 -10 -314 -71 -501 -138 -427 -463 -746
-838 -824 -99 -20 -268 -21 -362 -1 -245 52 -462 195 -627 415 -421 558 -383
1412 85 1906 135 143 273 233 438 286 157 50 283 60 435 34z m-3482 -24 c126
-50 230 -157 279 -286 19 -51 23 -79 23 -180 0 -114 -2 -123 -32 -187 -74
-156 -218 -250 -405 -265 l-78 -6 0 -227 0 -227 76 -7 c191 -17 387 -94 494
-192 109 -101 157 -234 147 -404 -13 -211 -132 -466 -285 -612 l-61 -58 -545
0 -546 0 0 1340 0 1341 438 -3 c432 -3 438 -3 495 -27z"/>
<path d="M12448 4321 l-3 -1070 -714 1050 -714 1049 -428 0 -429 0 0 -1790 0
-1790 439 0 439 0 7 313 c4 171 6 664 4 1094 -2 430 -2 778 1 774 3 -4 338
-512 744 -1129 l739 -1122 429 0 428 0 0 1845 0 1845 -470 0 -470 0 -2 -1069z"/>
<path d="M7899 5323 c-5 -16 -304 -820 -663 -1788 l-652 -1760 425 -3 c261 -1
427 1 431 7 3 6 201 562 440 1236 395 1112 436 1223 446 1199 6 -15 204 -580
440 -1256 l429 -1228 449 0 c354 0 447 3 443 13 -2 6 -301 821 -663 1810
l-659 1797 -428 0 -428 0 -10 -27z"/>
<path d="M3210 3520 l0 -1750 435 0 435 0 0 1750 0 1750 -435 0 -435 0 0
-1750z"/>
<path d="M5540 4630 l0 -640 -575 0 -575 0 0 -310 0 -310 575 0 575 0 0 -800
0 -800 435 0 435 0 0 1750 0 1750 -435 0 -435 0 0 -640z"/>
</g>
</svg>
