<?xml version="1.0" standalone="no"?>
<!DOCTYPE svg PUBLIC "-//W3C//DTD SVG 20010904//EN"
 "http://www.w3.org/TR/2001/REC-SVG-20010904/DTD/svg10.dtd">
<svg version="1.0" xmlns="http://www.w3.org/2000/svg"
 width="238.000000pt" height="133.000000pt" viewBox="0 0 238.000000 133.000000"
 preserveAspectRatio="xMidYMid meet">
<metadata>
Created by potrace 1.16, written by Peter Selinger 2001-2019
</metadata>
<g transform="translate(0.000000,133.000000) scale(0.100000,-0.100000)"
fill="#000000" stroke="none">
<path d="M30 665 l0 -285 55 0 55 0 0 75 c0 56 5 82 20 107 13 22 21 27 24 17
3 -8 17 -56 32 -106 l27 -93 64 0 c34 0 63 3 63 8 0 4 -26 83 -57 175 l-58
168 58 109 58 110 -71 0 -70 0 -44 -87 -45 -88 0 88 -1 87 -55 0 -55 0 0 -285z"/>
<path d="M1960 665 l0 -285 45 0 45 0 0 53 c1 45 22 100 33 86 2 -2 12 -34 22
-71 l18 -68 53 0 c30 0 54 3 54 6 0 3 -18 64 -41 134 l-41 129 41 70 c23 38
41 72 41 75 0 3 -26 6 -58 6 l-58 0 -31 -62 -32 -63 0 138 -1 137 -45 0 -45 0
0 -285z"/>
<path d="M495 805 c-5 -2 -22 -6 -37 -9 -32 -7 -57 -40 -68 -90 l-8 -35 47
-10 c25 -5 46 -9 46 -8 0 1 5 11 11 22 15 27 48 26 52 -2 3 -18 -6 -25 -57
-43 -85 -32 -96 -47 -96 -135 0 -64 3 -77 24 -99 30 -32 78 -34 114 -6 21 17
26 18 31 5 3 -10 19 -15 48 -15 l43 0 -3 157 c-4 177 -13 227 -45 247 -22 14
-83 26 -102 21z"/>
<path d="M1205 805 c-5 -2 -22 -6 -37 -9 -32 -7 -57 -40 -68 -90 l-8 -35 47
-10 c25 -5 46 -9 46 -8 0 1 5 11 11 22 15 27 48 26 52 -2 3 -18 -6 -25 -57
-43 -82 -30 -95 -47 -99 -129 -4 -61 -2 -70 23 -99 32 -38 78 -43 118 -12 21
17 26 18 31 5 3 -10 19 -15 48 -15 l43 0 -3 162 c-4 186 -19 243 -66 253 -52
10 -71 13 -81 10z"/>
<path d="M1469 803 c-46 -7 -72 -46 -77 -115 -6 -83 14 -121 77 -144 56 -21
76 -38 68 -58 -10 -25 -46 -19 -57 9 -8 21 -14 24 -42 19 -18 -3 -39 -7 -45
-10 -35 -10 7 -107 53 -124 37 -14 91 -12 124 5 59 30 78 162 33 224 -12 15
-40 33 -69 42 -36 12 -50 21 -52 37 -4 28 22 29 40 3 11 -16 22 -19 56 -14 27
4 42 11 42 20 0 21 -25 77 -41 89 -17 14 -74 22 -110 17z"/>
<path d="M1740 799 c-41 -9 -67 -38 -76 -85 -8 -42 -6 -45 45 -54 35 -6 40 -4
50 17 16 35 61 26 61 -13 0 -3 -33 -20 -74 -38 -79 -36 -96 -60 -96 -133 0
-102 69 -151 148 -103 26 16 32 17 32 5 0 -11 12 -15 43 -15 l43 0 -4 163 c-4
176 -12 220 -45 241 -29 18 -84 25 -127 15z"/>
<path d="M660 786 c0 -8 18 -101 40 -206 22 -105 40 -193 40 -196 0 -2 20 -4
44 -4 l44 0 10 48 c6 26 13 68 17 95 4 26 11 47 15 47 4 0 11 -21 15 -47 4
-27 11 -69 17 -95 l10 -48 44 0 c24 0 44 2 44 4 0 2 18 89 40 195 22 105 40
198 40 206 0 11 -12 15 -44 15 -50 0 -46 9 -68 -140 l-12 -85 -21 110 -21 110
-47 3 c-43 3 -47 1 -48 -20 0 -13 -8 -63 -18 -113 l-17 -90 -12 85 c-22 149
-18 140 -68 140 -32 0 -44 -4 -44 -14z"/>
<path d="M2250 590 l0 -210 50 0 50 0 0 210 0 210 -50 0 -50 0 0 -210z"/>
</g>
</svg>
