<svg id="svg" version="1.1" xmlns="http://www.w3.org/2000/svg" xmlns:xlink="http://www.w3.org/1999/xlink" width="400" height="400" viewBox="0, 0, 400,400"><g id="svgg"><path id="path0" d="M119.141 35.453 C 111.668 36.995,105.691 42.617,103.676 50.000 L 103.223 51.660 103.223 200.293 L 103.223 348.926 103.777 350.781 C 106.167 358.783,112.814 364.363,120.996 365.235 C 123.447 365.497,276.811 365.489,279.297 365.228 C 288.340 364.275,295.834 357.212,297.069 348.477 C 297.221 347.400,297.266 305.022,297.225 199.219 L 297.168 51.465 296.622 49.707 C 294.460 42.751,289.691 37.994,282.673 35.792 L 280.957 35.254 200.684 35.223 C 134.219 35.197,120.192 35.236,119.141 35.453 M280.148 43.667 C 283.935 44.640,287.124 47.516,288.500 51.200 L 288.963 52.441 289.018 70.850 L 289.072 89.258 200.200 89.258 L 111.328 89.258 111.328 71.268 C 111.328 55.483,111.366 53.132,111.638 52.079 C 112.669 48.081,116.039 44.738,120.117 43.667 C 121.826 43.219,278.400 43.219,280.148 43.667 M171.061 50.590 C 155.835 53.160,153.790 76.117,168.328 81.262 C 179.312 85.149,189.696 78.485,190.179 67.241 C 190.665 55.906,182.370 48.682,171.061 50.590 M260.156 50.878 C 254.053 52.245,250.638 57.472,252.535 62.543 C 253.710 65.683,256.691 67.516,261.816 68.248 C 268.047 69.139,269.731 70.074,269.723 72.636 C 269.707 78.271,258.002 78.949,252.588 73.629 L 251.563 72.621 251.563 76.130 C 251.563 80.146,251.427 79.840,253.519 80.538 C 266.039 84.712,277.413 79.709,276.269 70.530 C 275.738 66.269,273.082 64.198,266.315 62.768 C 259.551 61.340,258.398 60.730,258.398 58.586 C 258.398 54.516,268.425 54.188,272.998 58.108 L 273.828 58.820 273.828 55.672 L 273.828 52.525 272.900 52.122 C 269.821 50.786,263.377 50.156,260.156 50.878 M124.588 51.702 C 126.073 53.550,126.068 53.497,126.131 65.703 C 126.196 78.201,126.062 79.407,124.431 81.038 L 124.023 81.445 129.429 81.445 L 134.834 81.445 134.431 81.006 C 133.136 79.592,132.617 77.202,132.617 72.644 L 132.617 69.296 135.791 69.377 C 140.818 69.506,141.101 69.727,144.131 75.898 C 145.206 78.087,146.308 80.231,146.581 80.662 L 147.075 81.445 151.459 81.445 L 155.843 81.445 154.849 80.518 C 153.591 79.342,152.664 77.977,151.369 75.391 C 149.214 71.089,147.678 68.855,146.409 68.176 C 145.732 67.814,145.765 67.647,146.541 67.501 C 147.655 67.292,149.869 66.106,150.752 65.244 C 154.348 61.738,152.968 54.085,148.375 52.059 C 146.319 51.152,145.952 51.125,134.695 51.032 L 123.979 50.945 124.588 51.702 M195.156 51.514 C 196.826 53.299,196.933 54.092,197.021 65.332 C 197.114 77.228,197.000 78.348,195.464 80.617 L 194.901 81.448 206.188 81.398 L 217.475 81.348 217.903 78.125 C 218.138 76.353,218.337 74.697,218.345 74.446 L 218.359 73.989 217.747 74.504 C 215.864 76.089,214.409 76.399,208.350 76.509 L 203.320 76.601 203.320 66.902 C 203.320 55.387,203.520 53.557,204.990 51.630 L 205.489 50.977 200.071 50.977 L 194.653 50.977 195.156 51.514 M222.964 51.663 C 223.252 52.040,223.718 52.941,224.000 53.665 L 224.512 54.980 224.568 65.756 C 224.634 78.273,224.513 79.326,222.795 81.201 L 222.393 81.641 233.642 81.641 L 244.891 81.641 244.995 81.104 C 245.053 80.808,245.283 79.292,245.506 77.734 C 245.729 76.177,245.957 74.694,246.013 74.439 C 246.112 73.982,246.103 73.983,245.371 74.558 C 243.248 76.227,241.616 76.563,235.613 76.563 L 230.859 76.563 230.859 66.517 C 230.859 54.813,230.988 53.680,232.549 51.611 L 233.028 50.977 227.734 50.977 L 222.441 50.977 222.964 51.663 M176.194 55.664 C 181.998 56.740,185.201 63.405,183.244 70.336 C 180.637 79.571,167.317 79.016,165.515 69.599 C 163.819 60.734,168.761 54.286,176.194 55.664 M142.684 56.157 C 145.124 56.782,146.191 58.032,146.191 60.268 C 146.191 63.707,144.127 64.637,136.475 64.645 L 132.617 64.648 132.617 60.254 L 132.617 55.859 137.068 55.859 C 140.418 55.859,141.808 55.933,142.684 56.157 M289.063 200.293 L 289.063 302.930 200.195 302.930 L 111.328 302.930 111.328 200.293 L 111.328 97.656 200.195 97.656 L 289.063 97.656 289.063 200.293 M124.023 111.590 C 124.023 111.638,124.862 112.272,125.886 112.998 C 130.430 116.219,132.749 120.222,133.688 126.465 C 134.143 129.487,134.134 251.766,133.679 254.858 C 132.818 260.705,130.150 265.227,125.822 268.175 C 124.994 268.740,124.233 269.275,124.131 269.366 C 124.029 269.457,132.766 269.531,143.546 269.531 L 163.147 269.531 161.407 268.284 C 156.704 264.910,154.431 261.101,153.294 254.688 C 153.135 253.790,153.046 246.139,152.991 228.596 L 152.913 203.774 157.658 203.647 C 168.640 203.353,180.402 201.847,189.290 199.598 C 190.114 199.389,190.867 199.219,190.965 199.219 C 191.125 199.219,193.213 201.921,194.963 204.395 C 203.141 215.947,210.457 236.832,211.249 250.884 C 211.641 257.832,209.590 264.703,205.907 268.780 L 205.228 269.531 222.657 269.531 L 240.085 269.531 238.325 267.690 C 234.572 263.764,232.360 259.270,230.866 252.539 C 225.467 228.205,216.442 207.668,205.687 195.242 C 204.655 194.049,204.593 194.180,206.679 193.162 C 232.203 180.705,241.581 152.071,227.181 130.566 C 219.543 119.160,209.195 113.902,190.430 111.889 C 188.431 111.674,124.023 111.384,124.023 111.590 M187.595 122.538 C 205.286 125.353,215.277 137.038,214.584 154.102 C 213.616 177.899,191.667 192.443,155.566 193.208 L 153.027 193.262 152.978 157.656 L 152.929 122.050 169.189 122.123 C 183.482 122.188,185.709 122.238,187.595 122.538 M158.506 132.392 C 158.608 132.482,159.366 133.016,160.191 133.578 C 163.718 135.981,166.015 139.095,167.263 143.166 C 168.450 147.038,168.416 146.355,168.499 167.941 L 168.575 187.738 169.688 187.604 C 173.735 187.117,182.410 185.006,185.938 183.649 L 187.402 183.086 187.452 162.931 L 187.502 142.777 198.133 142.726 L 208.763 142.676 208.177 141.346 C 206.833 138.296,204.823 135.560,202.419 133.508 L 200.917 132.227 179.619 132.227 C 167.905 132.227,158.404 132.301,158.506 132.392 M235.095 135.891 C 236.690 139.744,237.962 144.634,238.220 147.903 L 238.340 149.419 240.616 151.711 C 252.974 164.155,251.732 186.302,237.982 198.676 C 233.577 202.639,226.963 206.452,221.289 208.297 C 220.698 208.489,220.193 208.664,220.166 208.686 C 220.139 208.707,221.069 210.651,222.233 213.005 C 223.397 215.359,224.562 217.790,224.821 218.406 C 225.101 219.071,225.389 219.492,225.530 219.441 C 225.660 219.393,226.470 219.161,227.330 218.925 L 228.894 218.497 229.292 218.965 C 237.323 228.421,244.586 243.029,248.241 257.079 C 252.342 272.845,251.554 282.111,245.500 289.307 L 244.884 290.039 262.210 290.039 L 279.537 290.039 278.313 288.731 C 273.830 283.938,272.008 279.977,269.620 269.824 C 264.294 247.190,255.360 228.034,243.917 214.715 L 242.380 212.926 243.623 212.230 C 265.414 200.044,274.197 176.261,264.390 155.994 C 258.688 144.209,249.285 137.205,234.740 133.910 L 234.226 133.793 235.095 135.891 M186.230 204.608 C 184.304 205.109,177.758 206.229,173.828 206.731 C 171.626 207.013,169.539 207.287,169.189 207.341 L 168.555 207.440 168.555 239.413 C 168.554 260.075,168.482 272.146,168.351 273.532 C 167.667 280.744,165.188 285.369,160.046 289.027 L 158.348 290.234 177.937 290.234 C 188.711 290.234,197.489 290.201,197.445 290.161 C 197.400 290.121,196.461 289.411,195.358 288.583 C 191.378 285.597,189.279 282.242,188.023 276.855 C 187.619 275.125,187.612 274.698,187.551 249.782 L 187.489 224.467 190.375 224.335 C 194.725 224.137,200.088 223.799,200.172 223.718 C 200.480 223.423,195.528 213.251,195.133 213.366 C 194.963 213.416,193.770 213.507,192.480 213.569 C 191.191 213.631,189.543 213.728,188.818 213.786 L 187.500 213.891 187.500 209.203 C 187.500 203.994,187.573 204.259,186.230 204.608 M289.060 329.053 C 289.057 344.333,289.013 347.157,288.762 348.222 C 288.021 351.365,285.606 354.352,282.604 355.840 C 279.553 357.352,286.743 357.236,199.316 357.180 L 120.996 357.129 119.434 356.596 C 116.485 355.591,113.918 353.403,112.588 350.763 C 111.275 348.155,111.328 349.063,111.328 329.158 L 111.328 311.133 200.195 311.133 L 289.063 311.133 289.060 329.053 M169.690 319.156 C 161.760 320.319,157.129 325.894,157.129 334.277 C 157.129 343.711,163.580 349.820,173.047 349.352 C 181.613 348.929,187.271 342.774,187.175 333.984 C 187.067 324.172,179.462 317.722,169.690 319.156 M233.256 319.139 C 224.853 320.328,219.794 326.076,219.848 334.375 C 219.890 340.927,222.886 345.654,228.418 347.896 C 232.464 349.535,239.048 349.670,243.176 348.199 L 244.432 347.751 244.860 345.018 C 245.096 343.515,245.294 342.084,245.301 341.838 L 245.313 341.390 244.775 341.895 C 241.885 344.612,233.956 345.206,230.466 342.967 C 224.585 339.193,225.043 327.971,231.206 324.827 C 234.637 323.077,241.136 323.787,243.712 326.194 L 244.336 326.778 244.336 323.667 L 244.336 320.555 243.213 320.138 C 240.722 319.213,236.049 318.744,233.256 319.139 M124.504 320.040 C 126.030 321.566,126.172 322.761,126.172 334.132 C 126.172 345.277,126.132 345.698,124.892 347.757 L 124.247 348.828 129.321 348.828 L 134.395 348.828 133.889 348.165 C 132.732 346.648,132.230 344.178,132.228 339.990 L 132.227 337.109 135.205 337.111 C 140.072 337.114,140.414 337.393,143.620 343.960 C 144.752 346.277,145.793 348.267,145.935 348.382 C 146.092 348.511,147.791 348.620,150.340 348.664 L 154.488 348.737 153.337 347.562 C 151.928 346.122,151.228 345.028,149.458 341.494 C 147.725 338.035,146.671 336.615,145.237 335.810 C 144.870 335.604,144.909 335.565,145.704 335.351 C 149.586 334.306,151.473 331.871,151.454 327.930 C 151.433 323.373,149.205 320.558,145.117 319.926 C 142.768 319.562,124.130 319.665,124.504 320.040 M187.402 320.095 C 188.552 320.815,189.695 322.268,195.102 329.883 L 200.581 337.598 200.580 340.527 C 200.579 344.504,200.020 346.970,198.845 348.193 L 198.422 348.633 203.502 348.633 L 208.582 348.633 208.108 347.935 C 206.970 346.257,206.766 345.307,206.683 341.291 L 206.606 337.563 211.239 331.037 C 216.664 323.397,218.018 321.622,219.258 320.531 L 220.172 319.727 215.257 319.727 L 210.343 319.727 210.666 320.220 C 211.046 320.800,210.939 322.093,210.428 323.099 C 209.970 324.002,204.256 332.227,204.088 332.227 C 203.906 332.227,198.036 323.588,197.487 322.513 C 196.964 321.486,196.960 320.896,197.475 320.241 L 197.880 319.727 192.348 319.727 C 186.857 319.728,186.821 319.731,187.402 320.095 M251.260 320.380 C 252.639 322.189,252.637 322.163,252.637 334.180 C 252.637 346.146,252.662 345.877,251.365 347.921 L 250.790 348.828 262.362 348.828 L 273.935 348.828 274.422 345.410 C 274.690 343.530,274.880 341.992,274.845 341.992 C 274.810 341.992,274.457 342.252,274.061 342.570 C 272.493 343.828,270.417 344.137,263.521 344.139 L 258.781 344.141 258.834 340.088 L 258.887 336.035 264.453 335.997 L 270.020 335.959 270.246 334.630 C 270.371 333.899,270.530 332.927,270.600 332.471 L 270.727 331.641 264.758 331.641 L 258.789 331.641 258.789 328.010 L 258.789 324.380 264.795 324.461 C 271.175 324.546,271.878 324.643,273.291 325.628 L 273.828 326.003 273.828 322.865 L 273.828 319.727 262.295 319.727 L 250.761 319.727 251.260 320.380 M174.512 324.289 C 179.435 325.606,181.941 331.092,180.572 337.553 C 178.810 345.870,166.831 346.887,164.043 338.956 C 160.972 330.218,166.696 322.198,174.512 324.289 M141.975 324.624 C 146.222 325.535,146.436 330.888,142.276 332.156 C 141.303 332.453,140.398 332.512,136.719 332.515 L 132.324 332.520 132.271 328.467 L 132.219 324.414 136.608 324.414 C 139.021 324.414,141.437 324.509,141.975 324.624 " stroke="none" fill="#fafafb" fill-rule="evenodd"></path><path id="path1" d="M118.269 24.918 C 105.756 26.869,96.090 36.070,93.104 48.871 L 92.681 50.684 92.625 199.316 C 92.575 332.351,92.601 348.167,92.870 350.026 C 94.672 362.462,104.374 372.639,116.992 375.330 C 119.580 375.881,280.616 375.881,283.203 375.330 C 295.827 372.638,305.523 362.467,307.325 350.026 C 307.595 348.167,307.620 332.343,307.570 199.219 L 307.513 50.488 307.087 48.730 C 304.126 36.509,295.542 27.946,283.453 25.155 L 281.543 24.714 200.781 24.680 C 132.470 24.651,119.750 24.687,118.269 24.918 M282.310 35.593 C 290.232 37.778,295.977 44.100,297.176 51.953 C 297.540 54.340,297.612 345.562,297.250 348.171 C 296.122 356.276,290.026 362.919,281.836 364.966 C 280.416 365.321,277.928 365.332,200.098 365.332 L 119.824 365.332 118.236 364.908 C 110.195 362.760,104.338 356.318,103.140 348.302 C 102.775 345.861,102.850 53.825,103.216 51.735 C 104.710 43.205,111.639 36.377,120.020 35.175 C 120.664 35.083,157.007 35.019,200.781 35.033 L 280.371 35.059 282.310 35.593 M121.206 43.565 C 116.843 44.300,113.441 47.219,111.885 51.563 L 111.430 52.832 111.372 71.045 L 111.315 89.258 200.195 89.258 L 289.076 89.258 289.020 71.143 L 288.965 53.027 288.420 51.465 C 287.129 47.766,284.394 45.135,280.469 43.818 C 279.307 43.428,123.489 43.181,121.206 43.565 M177.700 50.492 C 185.061 51.686,189.908 57.290,190.367 65.137 C 190.960 75.288,184.418 82.326,174.414 82.300 C 164.669 82.273,158.559 76.167,158.511 66.406 C 158.457 55.370,166.524 48.680,177.700 50.492 M267.388 50.593 C 269.266 50.823,271.490 51.386,272.883 51.985 L 273.828 52.392 273.828 55.728 L 273.828 59.064 273.096 58.361 C 269.012 54.444,258.454 54.568,258.509 58.533 C 258.536 60.395,259.697 61.196,263.584 62.034 C 270.281 63.479,272.253 64.188,274.065 65.802 C 278.091 69.389,276.764 77.113,271.617 80.058 C 267.321 82.516,258.817 82.719,253.044 80.502 L 251.660 79.971 251.607 76.229 L 251.554 72.487 252.628 73.518 C 257.570 78.267,268.275 78.357,269.527 73.660 C 270.314 70.703,268.655 69.429,262.864 68.545 C 255.022 67.347,251.922 64.819,251.922 59.620 C 251.922 53.290,258.421 49.497,267.388 50.593 M147.348 51.520 C 150.482 52.699,152.146 54.667,152.755 57.917 C 153.604 62.448,151.470 66.063,147.114 67.474 L 146.083 67.808 146.873 68.380 C 148.020 69.212,149.209 70.938,150.800 74.082 C 152.604 77.650,153.584 79.148,154.950 80.431 C 155.558 81.001,156.055 81.506,156.055 81.554 C 156.055 81.602,154.034 81.641,151.565 81.641 L 147.075 81.641 146.590 80.872 C 146.323 80.449,145.169 78.239,144.025 75.960 C 140.904 69.741,140.630 69.531,135.609 69.531 L 132.813 69.531 132.816 72.998 C 132.820 77.601,133.303 79.811,134.550 80.938 C 135.287 81.605,135.027 81.641,129.395 81.641 C 126.333 81.641,123.828 81.606,123.828 81.564 C 123.828 81.521,124.087 81.209,124.404 80.871 C 125.108 80.117,125.710 78.559,125.987 76.777 C 126.329 74.572,126.128 55.631,125.749 54.395 C 125.359 53.119,124.752 51.947,124.244 51.488 C 124.020 51.285,123.871 51.065,123.912 50.999 C 124.157 50.602,146.208 51.092,147.348 51.520 M205.649 50.973 C 205.695 50.975,205.545 51.175,205.317 51.418 C 203.711 53.128,203.523 54.704,203.519 66.481 L 203.516 76.615 208.057 76.502 C 214.021 76.353,215.986 75.908,217.758 74.307 C 218.209 73.900,218.554 73.703,218.554 73.854 C 218.553 74.001,218.334 75.747,218.066 77.734 C 217.799 79.722,217.580 81.414,217.579 81.494 C 217.579 81.575,212.437 81.641,206.152 81.641 C 199.728 81.641,194.727 81.566,194.727 81.469 C 194.727 81.375,194.872 81.177,195.050 81.030 C 196.668 79.691,196.904 77.637,196.836 65.525 C 196.771 53.995,196.759 53.887,195.301 51.824 C 194.985 51.376,194.727 50.981,194.727 50.945 C 194.727 50.899,204.353 50.924,205.649 50.973 M233.203 51.001 C 233.203 51.069,233.064 51.239,232.895 51.380 C 231.276 52.723,231.061 54.471,231.058 66.282 L 231.055 76.606 235.889 76.512 C 241.858 76.396,243.456 76.027,245.474 74.300 L 246.266 73.622 246.165 74.262 C 246.110 74.614,245.829 76.440,245.542 78.320 L 245.020 81.738 233.643 81.789 C 227.385 81.816,222.266 81.764,222.266 81.672 C 222.266 81.581,222.451 81.338,222.677 81.134 C 224.359 79.612,224.512 78.382,224.512 66.309 L 224.512 55.762 224.033 54.212 C 223.763 53.338,223.273 52.293,222.910 51.817 C 222.556 51.353,222.266 50.952,222.266 50.926 C 222.266 50.900,224.727 50.879,227.734 50.879 C 230.742 50.879,233.203 50.934,233.203 51.001 M171.927 55.965 C 166.783 57.350,164.151 63.275,165.705 69.972 C 167.721 78.665,180.146 79.258,182.991 70.796 C 185.938 62.032,179.825 53.838,171.927 55.965 M132.812 60.205 L 132.813 64.453 136.985 64.453 C 144.031 64.453,145.865 63.682,146.059 60.640 C 146.290 57.003,144.893 56.235,137.744 56.071 L 132.812 55.957 132.812 60.205 M111.328 200.195 L 111.328 302.734 200.195 302.734 L 289.063 302.734 289.063 200.195 L 289.063 97.656 200.195 97.656 L 111.328 97.656 111.328 200.195 M192.578 111.974 C 209.824 114.016,220.326 119.775,227.823 131.304 C 235.473 143.068,236.041 159.183,229.260 172.070 C 224.808 180.531,216.621 188.294,207.094 193.088 L 204.912 194.186 205.928 195.384 C 212.738 203.414,219.130 215.000,223.890 227.941 C 226.769 235.770,228.667 242.358,231.073 252.882 C 232.632 259.698,236.867 267.547,239.846 269.142 C 240.870 269.690,239.786 269.727,222.656 269.727 C 212.988 269.727,205.078 269.655,205.078 269.568 C 205.078 269.480,205.350 269.151,205.683 268.835 C 207.587 267.031,209.764 262.571,210.541 258.887 C 213.446 245.106,204.672 217.102,192.449 201.145 L 191.007 199.262 189.205 199.724 C 180.404 201.979,169.099 203.419,156.976 203.828 L 153.112 203.959 153.183 228.981 C 153.259 255.771,153.223 254.765,154.213 258.187 C 155.425 262.378,157.818 265.645,161.610 268.285 C 162.518 268.917,163.266 269.500,163.271 269.580 C 163.277 269.661,154.360 269.727,143.457 269.727 C 132.554 269.727,123.633 269.686,123.633 269.636 C 123.633 269.586,124.182 269.178,124.854 268.727 C 130.045 265.247,132.382 261.568,133.525 255.078 C 133.997 252.402,134.099 129.800,133.632 126.758 C 132.612 120.110,130.160 115.980,125.276 112.684 C 124.479 112.146,123.828 111.663,123.828 111.609 C 123.828 111.299,189.837 111.649,192.578 111.974 M153.125 157.602 L 153.125 193.164 154.544 193.164 C 158.317 193.164,166.627 192.429,171.387 191.674 C 199.290 187.251,214.385 173.533,214.347 152.637 C 214.318 137.110,206.054 126.726,191.027 123.334 C 186.341 122.276,185.290 122.219,168.604 122.126 L 153.125 122.040 153.125 157.602 M201.582 132.654 C 204.391 134.688,208.789 140.797,208.789 142.663 C 208.789 142.937,207.674 142.969,198.145 142.969 L 187.500 142.969 187.500 163.069 L 187.500 183.169 185.889 183.785 C 181.879 185.317,171.053 187.888,168.604 187.890 C 168.410 187.891,168.359 183.961,168.358 168.896 C 168.357 157.243,168.279 149.223,168.156 148.145 C 167.385 141.353,164.856 136.866,159.910 133.510 C 158.971 132.873,158.203 132.279,158.203 132.191 C 158.203 132.103,167.770 132.031,179.463 132.031 L 200.723 132.031 201.582 132.654 M240.224 135.259 C 250.194 138.482,257.465 144.020,262.476 152.207 C 275.218 173.024,267.073 199.226,243.817 212.232 L 242.571 212.928 243.166 213.642 C 256.317 229.397,264.440 246.828,270.211 271.680 C 272.134 279.960,274.635 285.026,278.790 289.054 C 279.283 289.533,279.688 289.995,279.688 290.080 C 279.688 290.165,271.821 290.234,262.207 290.234 C 252.593 290.234,244.727 290.182,244.727 290.119 C 244.727 290.056,245.108 289.550,245.574 288.996 C 250.013 283.717,251.556 276.716,250.286 267.611 C 247.948 250.844,239.540 231.375,229.430 219.319 L 228.842 218.619 227.273 219.075 C 225.174 219.685,225.278 219.722,224.568 218.115 C 224.224 217.336,223.046 214.889,221.951 212.676 L 219.958 208.653 221.258 208.201 C 236.408 202.935,246.283 192.494,248.409 179.492 C 250.237 168.312,247.350 158.349,240.318 151.576 L 238.312 149.644 238.089 147.722 C 237.644 143.886,236.428 139.300,234.938 135.840 C 234.521 134.873,234.180 133.982,234.180 133.861 C 234.180 133.580,237.172 134.273,240.224 135.259 M187.500 208.997 L 187.500 213.697 190.576 213.540 C 192.268 213.454,194.092 213.383,194.629 213.381 L 195.605 213.379 196.680 215.528 C 198.116 218.401,200.436 223.652,200.321 223.768 C 200.181 223.907,196.764 224.170,193.359 224.304 C 191.694 224.370,189.691 224.473,188.908 224.534 L 187.485 224.644 187.549 249.285 C 187.619 275.838,187.591 275.081,188.641 278.711 C 189.887 283.017,192.400 286.466,196.240 289.140 C 197.126 289.757,197.852 290.299,197.852 290.345 C 197.852 290.392,188.931 290.430,178.027 290.430 C 167.124 290.430,158.208 290.364,158.213 290.283 C 158.219 290.203,158.987 289.609,159.921 288.965 C 164.847 285.565,167.393 281.036,168.156 274.316 C 168.285 273.188,168.357 260.872,168.358 239.923 L 168.359 207.288 171.240 206.956 C 175.026 206.520,180.889 205.586,184.180 204.896 C 185.630 204.591,186.970 204.332,187.158 204.320 C 187.475 204.299,187.500 204.642,187.500 208.997 M111.410 311.312 C 111.148 311.573,111.352 346.466,111.622 347.754 C 112.463 351.760,115.290 354.895,119.527 356.520 L 120.605 356.934 199.469 356.984 C 286.922 357.040,279.736 357.148,282.613 355.732 C 284.532 354.787,286.772 352.588,287.667 350.771 C 289.020 348.022,288.943 349.262,289.013 329.297 L 289.076 311.230 200.283 311.230 C 151.447 311.230,111.454 311.267,111.410 311.312 M176.922 319.515 C 184.368 321.687,188.697 329.437,187.038 337.626 C 183.726 353.968,159.339 353.318,157.045 336.827 C 155.850 328.234,160.477 320.993,168.274 319.256 C 170.273 318.811,174.992 318.952,176.922 319.515 M241.373 319.417 C 242.054 319.589,243.042 319.915,243.571 320.143 L 244.531 320.556 244.531 323.768 L 244.531 326.979 243.688 326.288 C 240.750 323.881,234.803 323.236,231.310 324.946 C 225.217 327.930,224.668 338.850,230.412 342.802 C 233.819 345.145,241.149 344.611,244.775 341.755 C 245.641 341.073,245.625 340.878,245.029 344.702 C 244.484 348.204,244.685 347.894,242.557 348.509 C 237.823 349.877,231.903 349.609,228.001 347.850 C 216.411 342.626,216.981 324.728,228.884 320.138 C 232.079 318.905,238.000 318.564,241.373 319.417 M144.536 319.735 C 153.442 320.833,154.415 333.621,145.733 335.449 L 145.079 335.586 145.635 335.926 C 146.934 336.719,148.294 338.706,150.055 342.383 C 151.243 344.863,152.272 346.409,153.616 347.731 L 154.730 348.828 150.852 348.805 C 145.352 348.772,146.195 349.320,143.555 344.065 C 140.231 337.450,140.039 337.289,135.303 337.147 L 132.422 337.061 132.422 340.318 C 132.422 344.641,132.948 346.984,134.236 348.389 L 134.638 348.828 129.321 348.828 L 124.004 348.828 124.516 348.156 C 126.049 346.146,126.217 344.591,126.132 333.203 C 126.053 322.662,126.007 322.272,124.610 320.345 L 124.021 319.531 133.451 319.531 C 138.819 319.531,143.594 319.619,144.536 319.735 M198.047 319.637 C 198.047 319.695,197.871 319.932,197.656 320.162 C 197.178 320.676,197.149 321.667,197.587 322.519 C 198.063 323.443,203.938 332.031,204.095 332.031 C 204.305 332.031,210.122 323.566,210.449 322.784 C 210.886 321.739,210.829 320.528,210.318 319.983 L 209.893 319.531 215.239 319.531 L 220.586 319.531 219.467 320.528 C 218.000 321.836,216.783 323.418,211.255 331.209 L 206.641 337.710 206.644 340.193 C 206.651 344.178,207.191 346.693,208.333 348.050 L 208.824 348.633 203.600 348.633 C 198.641 348.633,198.392 348.616,198.677 348.291 C 199.897 346.904,200.391 344.734,200.391 340.760 L 200.391 337.533 195.053 330.018 C 188.650 321.005,188.704 321.074,187.489 320.286 C 186.958 319.942,186.523 319.632,186.523 319.596 C 186.523 319.560,189.116 319.531,192.285 319.531 C 195.454 319.531,198.047 319.579,198.047 319.637 M273.828 322.754 C 273.828 324.526,273.789 325.977,273.742 325.977 C 273.694 325.977,273.335 325.787,272.943 325.556 C 271.588 324.757,270.301 324.592,264.502 324.472 L 258.984 324.359 258.984 328.000 L 258.984 331.641 264.955 331.641 C 270.548 331.641,270.919 331.662,270.826 331.982 C 270.771 332.170,270.628 333.027,270.508 333.887 C 270.387 334.746,270.244 335.603,270.190 335.791 C 270.099 336.106,269.659 336.133,264.538 336.133 L 258.984 336.133 258.984 340.058 L 258.984 343.983 264.990 343.897 C 271.653 343.802,272.182 343.720,274.008 342.491 C 274.643 342.064,275.000 341.918,275.000 342.087 C 275.000 342.419,274.243 347.794,274.112 348.389 L 274.016 348.828 262.300 348.828 L 250.583 348.828 251.176 348.010 C 252.590 346.059,252.637 345.616,252.637 334.277 C 252.637 324.974,252.607 324.023,252.278 322.949 C 251.881 321.655,251.007 319.922,250.750 319.922 C 250.660 319.922,250.586 319.834,250.586 319.727 C 250.586 319.599,254.590 319.531,262.207 319.531 L 273.828 319.531 273.828 322.754 M169.109 324.584 C 164.662 326.046,162.433 331.484,163.791 337.559 C 165.779 346.451,178.322 346.614,180.384 337.774 C 181.069 334.839,180.714 330.731,179.571 328.371 C 177.934 324.994,173.140 323.258,169.109 324.584 M132.422 328.413 L 132.422 332.458 137.061 332.375 C 143.888 332.253,145.466 331.351,145.065 327.798 C 144.776 325.234,143.241 324.602,136.963 324.467 L 132.422 324.369 132.422 328.413 " stroke="none" fill="#044493" fill-rule="evenodd"></path><path id="path2" d="M183.652 66.211 C 183.652 66.802,183.689 67.043,183.734 66.748 C 183.778 66.453,183.778 65.969,183.734 65.674 C 183.689 65.378,183.652 65.620,183.652 66.211 M256.055 144.397 C 256.055 144.431,256.340 144.716,256.689 145.032 L 257.324 145.605 256.751 144.971 C 256.216 144.379,256.055 144.246,256.055 144.397 M153.662 203.852 C 154.011 203.896,154.583 203.896,154.932 203.852 C 155.281 203.809,154.995 203.773,154.297 203.773 C 153.599 203.773,153.313 203.809,153.662 203.852 M211.182 252.441 C 211.184 252.871,211.224 253.024,211.271 252.781 C 211.318 252.538,211.316 252.186,211.267 252.000 C 211.218 251.813,211.180 252.012,211.182 252.441 M143.457 269.531 L 123.730 269.632 143.506 269.679 C 156.591 269.711,163.281 269.660,163.281 269.531 C 163.281 269.424,163.259 269.357,163.232 269.383 C 163.206 269.409,154.307 269.476,143.457 269.531 M213.916 269.678 C 218.723 269.707,226.589 269.707,231.396 269.678 C 236.204 269.649,232.271 269.625,222.656 269.625 C 213.042 269.625,209.109 269.649,213.916 269.678 M278.320 288.733 C 278.320 288.767,278.606 289.052,278.955 289.368 L 279.590 289.941 279.016 289.307 C 278.481 288.715,278.320 288.582,278.320 288.733 M253.564 290.185 C 258.372 290.215,266.238 290.215,271.045 290.185 C 275.852 290.156,271.919 290.133,262.305 290.133 C 252.690 290.133,248.757 290.156,253.564 290.185 M141.650 319.666 C 141.838 319.715,142.146 319.715,142.334 319.666 C 142.522 319.617,142.368 319.577,141.992 319.577 C 141.616 319.577,141.462 319.617,141.650 319.666 M200.464 340.039 C 200.464 341.274,200.496 341.780,200.535 341.162 C 200.574 340.544,200.574 339.534,200.535 338.916 C 200.496 338.298,200.464 338.804,200.464 340.039 M260.889 344.091 C 261.990 344.126,263.792 344.126,264.893 344.091 C 265.994 344.056,265.093 344.028,262.891 344.028 C 260.688 344.028,259.788 344.056,260.889 344.091 M149.172 348.771 C 149.415 348.818,149.767 348.816,149.953 348.767 C 150.140 348.718,149.941 348.680,149.512 348.682 C 149.082 348.684,148.929 348.724,149.172 348.771 M171.631 349.552 C 171.873 349.598,172.268 349.598,172.510 349.552 C 172.751 349.505,172.554 349.467,172.070 349.467 C 171.587 349.467,171.389 349.505,171.631 349.552 " stroke="none" fill="#608fbc" fill-rule="evenodd"></path><path id="path3" d="M160.905 35.107 C 182.532 35.135,217.864 35.135,239.420 35.107 C 260.976 35.080,243.281 35.058,200.098 35.058 C 156.914 35.058,139.277 35.080,160.905 35.107 M108.789 40.918 C 108.315 41.401,107.970 41.797,108.024 41.797 C 108.078 41.797,108.510 41.401,108.984 40.918 C 109.459 40.435,109.803 40.039,109.749 40.039 C 109.696 40.039,109.263 40.435,108.789 40.918 M285.156 46.350 C 285.156 46.384,285.442 46.669,285.791 46.985 L 286.426 47.559 285.852 46.924 C 285.317 46.332,285.156 46.199,285.156 46.350 M173.877 50.335 C 174.172 50.380,174.656 50.380,174.951 50.335 C 175.247 50.290,175.005 50.254,174.414 50.254 C 173.823 50.254,173.582 50.290,173.877 50.335 M263.232 50.534 C 263.689 50.575,264.436 50.575,264.893 50.534 C 265.349 50.493,264.976 50.459,264.063 50.459 C 263.149 50.459,262.776 50.493,263.232 50.534 M103.027 200.195 C 103.027 280.923,103.049 313.948,103.076 273.584 C 103.103 233.220,103.103 167.170,103.076 126.807 C 103.049 86.443,103.027 119.468,103.027 200.195 M297.363 200.293 C 297.363 280.859,297.385 313.789,297.412 273.470 C 297.439 233.151,297.439 167.233,297.412 126.986 C 297.385 86.738,297.363 119.727,297.363 200.293 M263.431 55.415 C 263.782 55.458,264.310 55.458,264.603 55.413 C 264.897 55.368,264.609 55.333,263.965 55.334 C 263.320 55.335,263.080 55.372,263.431 55.415 M196.966 66.309 C 196.966 71.680,196.991 73.849,197.021 71.129 C 197.052 68.409,197.052 64.015,197.021 61.363 C 196.991 58.712,196.966 60.938,196.966 66.309 M203.411 66.602 C 203.411 72.134,203.436 74.397,203.467 71.631 C 203.497 68.865,203.497 64.338,203.467 61.572 C 203.436 58.806,203.411 61.069,203.411 66.602 M152.790 59.863 C 152.792 60.400,152.830 60.597,152.875 60.300 C 152.919 60.003,152.918 59.564,152.872 59.323 C 152.826 59.083,152.789 59.326,152.790 59.863 M134.619 64.599 C 135.774 64.633,137.664 64.633,138.818 64.599 C 139.973 64.564,139.028 64.536,136.719 64.536 C 134.409 64.536,133.464 64.564,134.619 64.599 M158.464 66.211 C 158.464 67.017,158.499 67.346,158.541 66.943 C 158.583 66.541,158.583 65.881,158.541 65.479 C 158.499 65.076,158.464 65.405,158.464 66.211 M190.297 66.211 C 190.297 66.909,190.332 67.195,190.376 66.846 C 190.419 66.497,190.419 65.925,190.376 65.576 C 190.332 65.227,190.297 65.513,190.297 66.211 M134.042 69.481 C 134.880 69.518,136.198 69.518,136.972 69.481 C 137.746 69.444,137.061 69.414,135.449 69.414 C 133.838 69.414,133.205 69.445,134.042 69.481 M262.256 77.290 C 262.605 77.333,263.176 77.333,263.525 77.290 C 263.875 77.246,263.589 77.211,262.891 77.211 C 262.192 77.211,261.907 77.246,262.256 77.290 M260.986 81.971 C 261.174 82.020,261.482 82.020,261.670 81.971 C 261.858 81.921,261.704 81.881,261.328 81.881 C 260.952 81.881,260.798 81.921,260.986 81.971 M264.111 81.971 C 264.299 82.020,264.607 82.020,264.795 81.971 C 264.983 81.921,264.829 81.881,264.453 81.881 C 264.077 81.881,263.923 81.921,264.111 81.971 M173.779 82.368 C 174.128 82.411,174.700 82.411,175.049 82.368 C 175.398 82.325,175.112 82.289,174.414 82.289 C 173.716 82.289,173.430 82.325,173.779 82.368 M185.012 111.664 C 185.309 111.708,185.749 111.707,185.989 111.661 C 186.229 111.615,185.986 111.578,185.449 111.579 C 184.912 111.581,184.716 111.619,185.012 111.664 M153.027 157.617 L 153.027 193.262 154.151 193.278 L 155.275 193.294 154.201 193.219 L 153.126 193.145 153.076 157.559 L 153.026 121.973 153.027 157.617 M192.836 142.920 C 195.825 142.950,200.659 142.950,203.578 142.920 C 206.498 142.889,204.053 142.865,198.145 142.865 C 192.236 142.865,189.848 142.889,192.836 142.920 M233.838 150.293 C 233.840 150.723,233.880 150.875,233.927 150.632 C 233.974 150.390,233.972 150.038,233.923 149.851 C 233.874 149.665,233.836 149.863,233.838 150.293 M168.456 168.929 C 168.457 185.501,168.492 187.770,168.750 187.840 C 168.966 187.899,168.979 187.875,168.800 187.748 C 168.609 187.613,168.546 183.518,168.505 168.837 L 168.454 150.098 168.456 168.929 M233.842 154.297 C 233.842 154.780,233.880 154.978,233.927 154.736 C 233.973 154.495,233.973 154.099,233.927 153.857 C 233.880 153.616,233.842 153.813,233.842 154.297 M158.643 193.103 C 158.831 193.153,159.138 193.153,159.326 193.103 C 159.514 193.054,159.360 193.014,158.984 193.014 C 158.608 193.014,158.455 193.054,158.643 193.103 M239.148 197.510 L 238.574 198.145 239.209 197.571 C 239.801 197.036,239.934 196.875,239.783 196.875 C 239.749 196.875,239.463 197.161,239.148 197.510 M255.561 203.174 L 254.199 204.590 255.615 203.228 C 256.930 201.963,257.120 201.758,256.977 201.758 C 256.947 201.758,256.310 202.395,255.561 203.174 M159.717 203.653 C 159.958 203.700,160.354 203.700,160.596 203.653 C 160.837 203.607,160.640 203.569,160.156 203.569 C 159.673 203.569,159.475 203.607,159.717 203.653 M153.024 227.539 C 153.024 240.698,153.048 246.082,153.076 239.502 C 153.105 232.922,153.105 222.156,153.076 215.576 C 153.048 208.997,153.024 214.380,153.024 227.539 M168.450 207.471 C 168.399 207.605,168.380 222.261,168.407 240.039 L 168.458 272.363 168.506 239.907 C 168.552 209.184,168.573 207.446,168.896 207.361 C 169.217 207.277,169.216 207.270,168.890 207.249 C 168.699 207.237,168.501 207.336,168.450 207.471 M190.869 224.353 C 191.057 224.403,191.365 224.403,191.553 224.353 C 191.741 224.304,191.587 224.264,191.211 224.264 C 190.835 224.264,190.681 224.304,190.869 224.353 M211.182 251.074 C 211.184 251.504,211.224 251.657,211.271 251.414 C 211.318 251.171,211.316 250.819,211.267 250.632 C 211.218 250.446,211.180 250.645,211.182 251.074 M211.186 253.906 C 211.186 254.390,211.224 254.587,211.271 254.346 C 211.317 254.104,211.317 253.708,211.271 253.467 C 211.224 253.225,211.186 253.423,211.186 253.906 M193.066 286.719 C 193.486 287.148,193.873 287.500,193.927 287.500 C 193.981 287.500,193.681 287.148,193.262 286.719 C 192.842 286.289,192.455 285.938,192.401 285.938 C 192.347 285.938,192.647 286.289,193.066 286.719 M155.908 302.881 C 180.266 302.908,220.125 302.908,244.482 302.881 C 268.840 302.854,248.911 302.831,200.195 302.831 C 151.479 302.831,131.550 302.854,155.908 302.881 M128.467 319.678 C 130.857 319.709,134.768 319.709,137.158 319.678 C 139.548 319.646,137.593 319.621,132.813 319.621 C 128.032 319.621,126.077 319.646,128.467 319.678 M186.719 319.678 C 186.718 319.758,188.410 319.802,190.478 319.774 C 197.507 319.681,198.158 319.614,192.432 319.572 C 189.290 319.550,186.719 319.597,186.719 319.678 M210.156 319.678 C 210.156 319.758,212.441 319.824,215.234 319.824 C 218.027 319.824,220.313 319.758,220.313 319.678 C 220.313 319.597,218.027 319.531,215.234 319.531 C 212.441 319.531,210.156 319.597,210.156 319.678 M256.508 319.678 C 259.712 319.708,264.897 319.708,268.032 319.678 C 271.166 319.647,268.545 319.623,262.207 319.623 C 255.869 319.623,253.305 319.648,256.508 319.678 M244.415 323.730 C 244.415 325.449,244.445 326.126,244.481 325.235 C 244.518 324.344,244.517 322.937,244.481 322.110 C 244.444 321.282,244.415 322.012,244.415 323.730 M161.328 322.949 C 160.854 323.433,160.509 323.828,160.563 323.828 C 160.617 323.828,161.049 323.433,161.523 322.949 C 161.998 322.466,162.342 322.070,162.288 322.070 C 162.235 322.070,161.803 322.466,161.328 322.949 M132.318 328.418 L 132.324 332.520 136.230 332.526 L 140.137 332.532 136.283 332.473 L 132.430 332.414 132.371 328.365 L 132.312 324.316 132.318 328.418 M258.870 328.027 C 258.871 330.068,258.900 330.877,258.935 329.824 C 258.970 328.771,258.970 327.101,258.934 326.113 C 258.899 325.125,258.870 325.986,258.870 328.027 M145.166 328.418 C 145.169 328.848,145.209 329.000,145.255 328.757 C 145.302 328.515,145.300 328.163,145.251 327.976 C 145.202 327.790,145.164 327.988,145.166 328.418 M163.348 334.277 C 163.349 335.137,163.383 335.464,163.425 335.005 C 163.466 334.545,163.465 333.842,163.423 333.442 C 163.381 333.042,163.347 333.418,163.348 334.277 M156.894 334.180 C 156.894 334.771,156.931 335.012,156.976 334.717 C 157.021 334.421,157.021 333.938,156.976 333.643 C 156.931 333.347,156.894 333.589,156.894 334.180 M258.876 336.187 C 258.824 336.324,258.806 338.192,258.838 340.338 L 258.895 344.238 258.940 340.189 L 258.984 336.139 264.404 336.084 L 269.824 336.029 264.398 335.983 C 260.140 335.947,258.951 335.991,258.876 336.187 M132.306 340.234 C 132.306 342.007,132.336 342.732,132.372 341.846 C 132.408 340.959,132.408 339.509,132.372 338.623 C 132.336 337.737,132.306 338.462,132.306 340.234 M267.337 344.087 C 267.689 344.130,268.216 344.129,268.509 344.085 C 268.803 344.040,268.516 344.005,267.871 344.006 C 267.227 344.007,266.986 344.043,267.337 344.087 M150.928 348.776 C 151.384 348.817,152.131 348.817,152.588 348.776 C 153.044 348.735,152.671 348.701,151.758 348.701 C 150.845 348.701,150.471 348.735,150.928 348.776 M235.596 349.353 C 235.784 349.403,236.091 349.403,236.279 349.353 C 236.467 349.304,236.313 349.264,235.938 349.264 C 235.562 349.264,235.408 349.304,235.596 349.353 M161.182 357.178 C 182.639 357.205,217.751 357.205,239.209 357.178 C 260.667 357.150,243.110 357.128,200.195 357.128 C 157.280 357.128,139.724 357.150,161.182 357.178 M291.406 359.473 C 290.932 359.956,290.588 360.352,290.641 360.352 C 290.695 360.352,291.127 359.956,291.602 359.473 C 292.076 358.989,292.420 358.594,292.366 358.594 C 292.313 358.594,291.881 358.989,291.406 359.473 M278.369 365.369 C 278.557 365.418,278.865 365.418,279.053 365.369 C 279.241 365.320,279.087 365.280,278.711 365.280 C 278.335 365.280,278.181 365.320,278.369 365.369 " stroke="none" fill="#7ca4c4" fill-rule="evenodd"></path><path id="path4" d="M134.912 56.005 C 136.013 56.040,137.815 56.040,138.916 56.005 C 140.017 55.970,139.116 55.942,136.914 55.942 C 134.712 55.942,133.811 55.970,134.912 56.005 M132.700 60.254 C 132.701 62.617,132.729 63.557,132.763 62.343 C 132.797 61.128,132.797 59.195,132.763 58.046 C 132.728 56.897,132.700 57.891,132.700 60.254 M230.950 66.797 C 230.950 72.222,230.975 74.441,231.006 71.729 C 231.036 69.016,231.036 64.578,231.006 61.865 C 230.975 59.153,230.950 61.372,230.950 66.797 M132.695 72.363 C 132.696 73.975,132.726 74.608,132.763 73.770 C 132.799 72.933,132.799 71.615,132.762 70.841 C 132.725 70.067,132.695 70.752,132.695 72.363 M174.072 76.892 C 174.260 76.942,174.568 76.942,174.756 76.892 C 174.944 76.843,174.790 76.803,174.414 76.803 C 174.038 76.803,173.884 76.843,174.072 76.892 M162.305 77.405 C 162.305 77.438,162.590 77.724,162.939 78.040 L 163.574 78.613 163.001 77.979 C 162.466 77.387,162.305 77.254,162.305 77.405 M126.916 81.591 C 128.453 81.624,130.914 81.624,132.385 81.591 C 133.855 81.558,132.598 81.531,129.590 81.531 C 126.582 81.531,125.379 81.558,126.916 81.591 M149.170 81.591 C 150.378 81.625,152.356 81.625,153.564 81.591 C 154.773 81.557,153.784 81.529,151.367 81.529 C 148.950 81.529,147.961 81.557,149.170 81.591 M200.537 81.592 C 203.679 81.622,208.821 81.622,211.963 81.592 C 215.105 81.562,212.534 81.537,206.250 81.537 C 199.966 81.537,197.395 81.562,200.537 81.592 M233.594 81.641 L 222.168 81.743 233.533 81.789 C 240.950 81.820,244.941 81.768,245.020 81.641 C 245.086 81.533,245.113 81.466,245.080 81.492 C 245.047 81.517,239.878 81.584,233.594 81.641 M222.266 124.512 C 222.849 125.103,223.370 125.586,223.424 125.586 C 223.478 125.586,223.044 125.103,222.461 124.512 C 221.877 123.921,221.356 123.438,221.302 123.438 C 221.249 123.438,221.682 123.921,222.266 124.512 M168.799 132.178 C 174.680 132.206,184.304 132.206,190.186 132.178 C 196.067 132.149,191.255 132.126,179.492 132.126 C 167.729 132.126,162.917 132.149,168.799 132.178 M203.516 134.473 C 203.880 134.849,204.222 135.156,204.276 135.156 C 204.330 135.156,204.075 134.849,203.711 134.473 C 203.347 134.097,203.004 133.789,202.951 133.789 C 202.897 133.789,203.151 134.097,203.516 134.473 M240.723 151.953 C 241.142 152.383,241.529 152.734,241.583 152.734 C 241.637 152.734,241.338 152.383,240.918 151.953 C 240.498 151.523,240.111 151.172,240.057 151.172 C 240.004 151.172,240.303 151.523,240.723 151.953 M214.519 152.734 C 214.519 153.540,214.553 153.870,214.595 153.467 C 214.638 153.064,214.638 152.405,214.595 152.002 C 214.553 151.599,214.519 151.929,214.519 152.734 M221.087 182.959 L 220.020 184.082 221.143 183.014 C 222.186 182.023,222.355 181.836,222.210 181.836 C 222.180 181.836,221.674 182.341,221.087 182.959 M155.911 203.851 C 156.208 203.896,156.647 203.895,156.887 203.848 C 157.128 203.802,156.885 203.765,156.348 203.767 C 155.811 203.768,155.614 203.806,155.911 203.851 M190.283 213.611 C 190.471 213.660,190.779 213.660,190.967 213.611 C 191.155 213.562,191.001 213.522,190.625 213.522 C 190.249 213.522,190.095 213.562,190.283 213.611 M192.627 224.353 C 192.815 224.403,193.123 224.403,193.311 224.353 C 193.499 224.304,193.345 224.264,192.969 224.264 C 192.593 224.264,192.439 224.304,192.627 224.353 M187.939 224.549 C 188.127 224.598,188.435 224.598,188.623 224.549 C 188.811 224.500,188.657 224.459,188.281 224.459 C 187.905 224.459,187.751 224.500,187.939 224.549 M168.115 290.381 C 173.513 290.410,182.346 290.410,187.744 290.381 C 193.142 290.352,188.726 290.328,177.930 290.328 C 167.134 290.328,162.717 290.352,168.115 290.381 M156.022 311.279 C 180.442 311.307,220.345 311.307,244.694 311.279 C 269.043 311.252,249.063 311.230,200.293 311.230 C 151.523 311.230,131.601 311.252,156.022 311.279 M182.617 322.754 C 182.982 323.130,183.324 323.438,183.377 323.438 C 183.431 323.438,183.177 323.130,182.813 322.754 C 182.448 322.378,182.106 322.070,182.052 322.070 C 181.999 322.070,182.253 322.378,182.617 322.754 M235.400 323.963 C 235.588 324.012,235.896 324.012,236.084 323.963 C 236.272 323.914,236.118 323.873,235.742 323.873 C 235.366 323.873,235.212 323.914,235.400 323.963 M171.731 324.164 C 172.028 324.208,172.468 324.207,172.708 324.161 C 172.948 324.115,172.705 324.078,172.168 324.079 C 171.631 324.081,171.434 324.119,171.731 324.164 M219.581 334.277 C 219.583 334.707,219.623 334.860,219.669 334.617 C 219.716 334.374,219.714 334.022,219.665 333.836 C 219.617 333.649,219.578 333.848,219.581 334.277 M147.314 348.773 C 147.610 348.817,148.093 348.817,148.389 348.773 C 148.684 348.728,148.442 348.691,147.852 348.691 C 147.261 348.691,147.019 348.728,147.314 348.773 " stroke="none" fill="#3572ac" fill-rule="evenodd"></path></g></svg>