<svg xmlns="http://www.w3.org/2000/svg" height="800" width="1200" viewBox="-7.666752 -2.085535 66.445184 12.51321"><path d="M15.84255 4.88933s.6477.0109 1.03928 0c0 0 .26847-.0455.30163.24588.0332.2914.0109.78211.6036.87313.59337.0882 1.22026.0219 1.40758-.007.18697-.0282.26-.0903.26388-.23142.004-.14252-.23636-.27693-.34149-.33337-.10689-.0586-.79057-.45685-1.385-.72143-.59479-.266-1.24249-.53834-1.4658-.88407-.22507-.34607-.22577-.69462-.17744-.92075.0501-.22436.35666-1.28411 1.96638-1.28411 0 0 1.43792.0303 2.57422.019 0 0 1.22202-.0776 1.4979.98813 0 0 .0818.41769.0593.76765 0 0 .0226.30586-.32809.30586-.34925 0-.611-.0138-.90205.008-.29069.0219-.381-.15664-.39547-.29845-.0145-.14111-.0363-.58914-.2755-.71508-.23849-.127-.35068-.17251-.58139-.17251H18.5251s-.30515-.007-.3577.0822c-.0515.0903-.12595.21625.1799.3884.30586.17181.8502.4699 1.93111.91723 0 0 1.08867.37959 1.20721 1.04316.11994.66499-.073 1.05128-.35737 1.29752-.28257.24659-.67204.5214-1.51377.5214-.84278 0-1.49048-.013-2.59433 0 0 0-1.02658.0924-1.3723-.83432 0 0-.1344-.40322-.0677-.83502 0 0 .0229-.20885.26247-.21978m9.80539.46189H24.1667c-.30515 0-.14534-.27129-.14534-.27129l.88124-1.40229c.0187-.0289.0716-.0963.18662-.0963.1136 0 .15592.12065.15592.12065s.50553 1.29258.57785 1.48273c.0723.19085-.17497.16651-.17497.16651m2.6991.89111s-1.62137-4.02272-1.74555-4.32223c-.12523-.30057-.42968-.26882-.42968-.26882-.4399.0152-.59055-.0102-.9412-.0102-.35279 0-.44804.23813-.44804.23813l-2.812 4.42313c-.21202.35066.006.46072.096.46072.0889 0 .30656-.0173.57468.0109.26916.0279.3355-.12312.3355-.12312s.1404-.20673.2688-.40393c.12947-.19403.44168-.15416.44168-.15416h2.15794c.41734 0 .45473.26176.45473.26176l.11078.25647c.11253.23812.49283.18309.49283.18309.36936-.0159.66357-.018 1.167-.004.5334.0145.27656-.54822.27656-.54822m18.083-.89064h-1.4785c-.30303 0-.14534-.27129-.14534-.27129l.87983-1.40229c.0201-.0289.073-.0963.18591-.0963.11501 0 .15734.12065.15734.12065s.50623 1.29258.57926 1.48273c.0716.19085-.1785.16651-.1785.16651m2.70121.89111S47.51 2.21987 47.38582 1.92036c-.12382-.30057-.42968-.26882-.42968-.26882-.43992.0152-.58914-.0102-.94192-.0102s-.44803.23813-.44803.23813L42.75491 6.3026c-.21202.35066.006.46072.0953.46072.0896 0 .30726-.0173.5768.0109.26775.0279.3362-.12312.3362-.12312s.13757-.20673.2674-.40393c.12875-.19403.44167-.15416.44167-.15416h2.15723c.41734 0 .45403.26176.45403.26176l.11148.25647c.11112.23812.49283.18309.49283.18309.36936-.0159.66357-.018 1.167-.004.53268.0145.27656-.54822.27656-.54822m-16.35411.52117c-.37148 0-.45827-.23706-.45827-.23706L31.1457 4.40814s-.1344-.30233-.27976-.30233c-.14605 0-.18379.15557-.18379.15557l-.5595 2.25531h-.001c-.0723.2854-.28999.26811-.28999.26811-.34608-.0275-.29704 0-.55492 0-.26529 0-.17216-.34043-.17216-.34043l1.07844-4.35116s.0536-.17357.12947-.25082c.0773-.0766.2025-.18451.4445-.18451 0 0 .52211.0349 1.27177 0 0 0 .4251-.001.59337.31186l1.11054 2.06022s.13371.30268.27976.30268c.14534 0 .18203-.15451.18203-.15451l.56021-2.25566v-.001c.0737-.28399.2921-.26812.2921-.26812.34572.0282.29633 0 .55316 0 .266 0 .17356.34255.17356.34255L34.6947 6.27721s-.0938.52035-.5401.49001c-.63677-.0448-1.3769-.004-1.3769-.004m3.80571-.36295l-.0751-4.42983s-.0145-.32843.3729-.32843c.38875 0 .5221.0455 1.37194 0 0 0 .36654-.0367.36654.28363 0 .32138.0441 2.07963.0441 2.07963s-.0138.21625.14181.24588c.1563.0303.27623-.1397.3288-.22331.0515-.0825 1.39311-2.11384 1.39311-2.11384s.1122-.26882.35843-.26882c.24588 0 .39052.0229.68332 0 0 0 .35702.0561.36795.32456.0109.26811.0332 1.34232.0332 1.34232s-.0222.16757.12312.20179c.14534.0332.18944-.079.25788-.17957.0674-.10019.97367-1.47249.97367-1.47249s.12382-.21237.26846-.21237c.14605 0 .32597.0332.68721 0 0 0 .3161.002.13018.28998-.17498.27093-2.95452 4.65455-2.95452 4.65455s-.0787.19015-.2681.19015c-.19086 0-.39124-.0236-.64982 0 0 0-.30092 0-.31292-.27976-.011-.27975-.0557-1.72684-.0557-1.72684s-.0144-.13759-.10477-.17569c-.0896-.037-.20849.0751-.23742.127-.0296.0529-1.24672 1.85068-1.24672 1.85068s-.0889.20743-.43956.20743c-.34996 0-.75318-.0296-1.23049 0 0 0-.3129.0296-.32738-.38665M4.54907 5.44813s-.35136.2032-.4466.25894c.0522.0586.13157.14746.13157.14746.405.4064.94545.62971 1.51871.62971.64276 0 1.23613-.28717 1.64747-.7807-.0995-.0564-1.59244-.91828-1.64747-.95074-.14605.0847-1.20368.69533-1.20368.69533m.84244-3.21981c-.43745.0737-.83997.26988-1.15747.58844-.4064.40569-.6297.94509-.6297 1.51976 0 .25718.0494.50589.13828.74295.12983-.0751 1.59385-.92004 1.6489-.95108zm.72284 0v1.90007c.14675.0836 1.20438.69391 1.20438.69391s.34678.20144.4445.25717c.0882-.23777.13794-.48648.13794-.74295 0-.57467-.2226-1.11407-.62936-1.51976-.3175-.31856-.7193-.5147-1.15746-.58844" fill="#3c60f3"/><path d="M8.36331 6.26022s-.37606-.21766-.4438-.25682c-.0695.0794-.23213.26811-.23213.26811-.51682.51611-1.20297.79975-1.93463.79975-.7299 0-1.41746-.28364-1.93428-.79975 0 0-.17956-.20814-.23213-.26811-.0681.0392-.44309.25682-.44309.25682l-.47342-.14464.11112-.48154s.37818-.21837.44591-.25682c-.13652-.3295-.21025-.67875-.21025-1.0407 0-1.37512 1.01847-2.528 2.3749-2.70827v-.51541l.32173-.29915.0395-.0377.3616.3369v.51541c.59796.0783 1.1437.34219 1.57303.77223.51682.51753.80222 1.20438.80222 1.93604 0 .36337-.0737.7112-.21026 1.0407.0667.0384.4445.25682.4445.25682l.1122.48154zM10.95128.02699H.78635C.35278.02699 0 .37977 0 .81369v6.6869c0 .43356.35278.78634.78635.78634h10.16493c.43357 0 .78705-.35278.78705-.78634V.81369c0-.43392-.35348-.7867-.78705-.7867" fill="#3c60f3"/><path d="M50.2839 8.18286c.36935 0 .6685-.29774.6685-.6671V.82744c0-.36865-.29915-.66816-.6685-.66816H13.83911c-.36936 0-.66922.29951-.66922.66816v6.68832c0 .36936.29986.6671.66922.6671z" fill="none" stroke="#3c60f3" stroke-width=".31856"/></svg>