<?xml version="1.0" standalone="no"?>
<!DOCTYPE svg PUBLIC "-//W3C//DTD SVG 20010904//EN"
 "http://www.w3.org/TR/2001/REC-SVG-20010904/DTD/svg10.dtd">
<svg version="1.0" xmlns="http://www.w3.org/2000/svg"
 width="800.000000pt" height="138.000000pt" viewBox="0 0 800.000000 138.000000"
 preserveAspectRatio="xMidYMid meet">
<metadata>
Created by potrace 1.16, written by Peter Selinger 2001-2019
</metadata>
<g transform="translate(0.000000,138.000000) scale(0.100000,-0.100000)"
fill="#000000" stroke="none">
<path d="M5085 1366 c-77 -20 -167 -60 -242 -108 -110 -72 -176 -145 -228
-253 -122 -256 -70 -596 122 -791 107 -109 216 -171 351 -199 91 -19 428 -14
492 7 134 45 212 109 283 228 47 78 87 194 87 249 l0 41 -172 -2 -172 -3 -8
-43 c-9 -56 -48 -140 -80 -174 -71 -75 -203 -106 -313 -73 -181 52 -294 222
-297 445 -3 205 76 352 227 421 60 27 82 32 150 32 85 0 100 -2 156 -26 82
-34 147 -120 158 -210 l6 -52 173 -2 172 -2 0 37 c-2 209 -184 405 -440 472
-89 23 -342 27 -425 6z"/>
<path d="M0 700 l0 -661 158 3 157 3 3 273 2 272 330 0 330 0 0 -275 0 -275
160 0 160 0 0 660 0 660 -160 0 -160 0 0 -255 0 -255 -330 0 -330 0 -2 253 -3
252 -157 3 -158 3 0 -661z"/>
<path d="M1540 700 l0 -660 185 0 c183 0 185 0 190 23 3 12 4 308 3 657 l-3
635 -187 3 -188 2 0 -660z"/>
<path d="M2000 1226 c0 -120 2 -135 18 -139 9 -3 122 -2 250 1 l232 7 0 -527
0 -528 170 0 170 0 0 528 0 527 192 -3 c106 -2 217 0 246 3 l52 6 0 130 0 129
-665 0 -665 0 0 -134z"/>
<path d="M3581 1223 c-35 -76 -78 -169 -96 -208 -18 -38 -47 -104 -65 -145
-18 -41 -51 -113 -72 -160 -22 -47 -60 -130 -85 -185 -25 -55 -60 -131 -78
-170 -18 -38 -47 -101 -64 -140 -16 -38 -39 -88 -51 -110 -11 -21 -20 -45 -20
-52 0 -9 45 -11 187 -10 l187 2 56 130 55 130 298 -3 c171 -1 297 -6 297 -11
0 -5 13 -38 29 -73 16 -35 41 -89 55 -120 l25 -58 190 0 c211 0 197 -6 166 65
-8 17 -38 87 -69 157 -30 70 -60 135 -66 145 -5 10 -32 70 -59 133 -74 175
-272 623 -279 635 -4 5 -23 48 -43 95 l-35 85 -200 3 -200 2 -63 -137z m369
-458 c39 -99 74 -186 77 -192 4 -10 -39 -13 -196 -13 -111 0 -201 2 -201 4 0
6 63 160 130 316 34 80 64 156 67 168 5 19 10 12 28 -40 13 -34 55 -144 95
-243z"/>
<path d="M6096 1344 c-8 -20 -8 -1252 0 -1281 6 -23 8 -23 189 -23 138 0 184
3 188 13 2 6 2 131 -1 277 l-5 265 307 -3 306 -3 0 -275 0 -274 188 2 187 3 3
635 c1 349 0 645 -3 658 -5 22 -7 22 -190 22 l-185 0 0 -245 0 -245 -305 0
-305 0 0 245 0 245 -184 0 c-158 0 -185 -2 -190 -16z"/>
<path d="M7690 700 l0 -660 155 0 155 0 0 660 0 660 -155 0 -155 0 0 -660z"/>
</g>
</svg>
